<?xml version="1.0" encoding="UTF-8" standalone="no"?><!DOCTYPE svg PUBLIC "-//W3C//DTD SVG 1.1//EN" "http://www.w3.org/Graphics/SVG/1.1/DTD/svg11.dtd"><svg width="100%" height="100%" viewBox="0 0 800 700" version="1.1" xmlns="http://www.w3.org/2000/svg" xmlns:xlink="http://www.w3.org/1999/xlink" xml:space="preserve" xmlns:serif="http://www.serif.com/" style="fill-rule:evenodd;clip-rule:evenodd;stroke-linejoin:round;stroke-miterlimit:1.41421;"><path d="M787.763,700l-757.569,0l0,-2.182l757.964,0l-0.395,2.182Z" style="fill:#3f3d56;fill-rule:nonzero;"/><path d="M577.806,296.049l-270.001,0c-2.741,-0.004 -4.996,-2.259 -5,-5l0,-122.976c0.004,-2.742 2.259,-4.997 5,-5l270.001,0c2.742,0.003 4.997,2.258 5,5l0,122.976c-0.003,2.741 -2.258,4.996 -5,5Zm-270.001,-130.976c-1.645,0.002 -2.998,1.355 -3,3l0,122.976c0.002,1.645 1.355,2.998 3,3l270.001,0c1.645,-0.002 2.998,-1.355 3,-3l0,-122.976c-0.002,-1.645 -1.355,-2.998 -3,-3l-270.001,0Z" style="fill:#3f3d56;fill-rule:nonzero;"/><circle cx="342.805" cy="201.561" r="21" style="fill:#bae8e8;"/><path d="M391.305,187.561c-1.92,0 -3.5,1.579 -3.5,3.5c0,1.92 1.58,3.5 3.5,3.5l165,0c1.92,0 3.5,-1.58 3.5,-3.5c0,-1.921 -1.58,-3.5 -3.5,-3.5l-165,0Z" style="fill:#e6e6e6;fill-rule:nonzero;"/><path d="M391.305,208.561c-1.92,0 -3.5,1.579 -3.5,3.5c0,1.92 1.58,3.5 3.5,3.5l71,0c1.92,0 3.5,-1.58 3.5,-3.5c0,-1.921 -1.58,-3.5 -3.5,-3.5l-71,0Z" style="fill:#e6e6e6;fill-rule:nonzero;"/><path d="M326.698,242.133c-2.662,0 -4.829,1.571 -4.829,3.5c0,1.93 2.167,3.5 4.829,3.5l227.649,0c2.663,0 4.829,-1.57 4.829,-3.5c0,-1.929 -2.166,-3.5 -4.829,-3.5l-227.649,0Z" style="fill:#e6e6e6;fill-rule:nonzero;"/><path d="M326.698,263.133c-2.662,0 -4.829,1.571 -4.829,3.5c0,1.93 2.167,3.5 4.829,3.5l227.649,0c2.663,0 4.829,-1.57 4.829,-3.5c0,-1.929 -2.166,-3.5 -4.829,-3.5l-227.649,0Z" style="fill:#e6e6e6;fill-rule:nonzero;"/><path d="M779.806,133.049l-270.001,0c-2.741,-0.004 -4.996,-2.259 -5,-5l0,-122.976c0.004,-2.742 2.259,-4.997 5,-5l270.001,0c2.742,0.003 4.997,2.258 5,5l0,122.976c-0.003,2.741 -2.258,4.996 -5,5Zm-270.001,-130.976c-1.645,0.002 -2.998,1.355 -3,3l0,122.976c0.002,1.645 1.355,2.998 3,3l270.001,0c1.645,-0.002 2.998,-1.355 3,-3l0,-122.976c-0.002,-1.645 -1.355,-2.998 -3,-3l-270.001,0Z" style="fill:#3f3d56;fill-rule:nonzero;"/><circle cx="544.805" cy="38.561" r="21" style="fill:#bae8e8;"/><path d="M593.305,24.561c-1.92,0 -3.5,1.579 -3.5,3.5c0,1.92 1.58,3.5 3.5,3.5l165,0c1.92,0 3.5,-1.58 3.5,-3.5c0,-1.921 -1.58,-3.5 -3.5,-3.5l-165,0Z" style="fill:#e6e6e6;fill-rule:nonzero;"/><path d="M593.305,45.561c-1.92,0 -3.5,1.579 -3.5,3.5c0,1.92 1.58,3.5 3.5,3.5l71,0c1.92,0 3.5,-1.58 3.5,-3.5c0,-1.921 -1.58,-3.5 -3.5,-3.5l-71,0Z" style="fill:#e6e6e6;fill-rule:nonzero;"/><path d="M528.698,79.133c-2.662,0 -4.829,1.571 -4.829,3.5c0,1.93 2.167,3.5 4.829,3.5l227.649,0c2.663,0 4.829,-1.57 4.829,-3.5c0,-1.929 -2.166,-3.5 -4.829,-3.5l-227.649,0Z" style="fill:#e6e6e6;fill-rule:nonzero;"/><path d="M528.698,100.133c-2.662,0 -4.829,1.571 -4.829,3.5c0,1.93 2.167,3.5 4.829,3.5l227.649,0c2.663,0 4.829,-1.57 4.829,-3.5c0,-1.929 -2.166,-3.5 -4.829,-3.5l-227.649,0Z" style="fill:#e6e6e6;fill-rule:nonzero;"/><path d="M779.806,459.049l-270.001,0c-2.741,-0.004 -4.996,-2.259 -5,-5l0,-122.976c0.004,-2.742 2.259,-4.997 5,-5l270.001,0c2.742,0.003 4.997,2.258 5,5l0,122.976c-0.003,2.741 -2.258,4.996 -5,5Zm-270.001,-130.976c-1.645,0.002 -2.998,1.355 -3,3l0,122.976c0.002,1.645 1.355,2.998 3,3l270.001,0c1.645,-0.002 2.998,-1.355 3,-3l0,-122.976c-0.002,-1.645 -1.355,-2.998 -3,-3l-270.001,0Z" style="fill:#3f3d56;fill-rule:nonzero;"/><circle cx="544.805" cy="364.561" r="21" style="fill:#bae8e8;"/><path d="M593.305,350.561c-1.92,0 -3.5,1.579 -3.5,3.5c0,1.92 1.58,3.5 3.5,3.5l165,0c1.92,0 3.5,-1.58 3.5,-3.5c0,-1.921 -1.58,-3.5 -3.5,-3.5l-165,0Z" style="fill:#e6e6e6;fill-rule:nonzero;"/><path d="M593.305,371.561c-1.92,0 -3.5,1.579 -3.5,3.5c0,1.92 1.58,3.5 3.5,3.5l71,0c1.92,0 3.5,-1.58 3.5,-3.5c0,-1.921 -1.58,-3.5 -3.5,-3.5l-71,0Z" style="fill:#e6e6e6;fill-rule:nonzero;"/><path d="M528.698,405.133c-2.662,0 -4.829,1.571 -4.829,3.5c0,1.93 2.167,3.5 4.829,3.5l227.649,0c2.663,0 4.829,-1.57 4.829,-3.5c0,-1.929 -2.166,-3.5 -4.829,-3.5l-227.649,0Z" style="fill:#e6e6e6;fill-rule:nonzero;"/><path d="M528.698,426.133c-2.662,0 -4.829,1.571 -4.829,3.5c0,1.93 2.167,3.5 4.829,3.5l227.649,0c2.663,0 4.829,-1.57 4.829,-3.5c0,-1.929 -2.166,-3.5 -4.829,-3.5l-227.649,0Z" style="fill:#e6e6e6;fill-rule:nonzero;"/><path d="M131.469,402.435l-9.233,13.907c-0.996,1.777 -1.519,3.781 -1.519,5.818c0,4.366 2.401,8.395 6.241,10.472c1.74,0.941 3.687,1.434 5.665,1.434c6.105,0 11.272,-4.697 11.851,-10.776l-1.515,-12.891l7.111,-83.582l12.129,-54.976l-25.183,-7.15l-11.722,61.823l6.175,75.921Z" style="fill:#9f616a;fill-rule:nonzero;"/><path d="M261.694,666.197l-24.405,1.061l-54.788,-187.721l-59.884,189.172l-23.27,-0.39l37.607,-221.791c-11.064,-30.32 -3.883,-58.015 13.264,-84.277l2.579,-16.384l66.453,-1.181l6.245,62.153l36.199,259.358Z" style="fill:#2f2e41;fill-rule:nonzero;"/><path d="M244.731,699.58c3.438,1.569 6.743,-11.518 9.218,-8.293c9.573,12.476 28.213,8.17 27.569,6.185c2.091,-0.673 3.518,-2.631 3.518,-4.827c0,-0.608 -0.109,-1.212 -0.323,-1.781c-0.584,-1.559 -1.902,-2.734 -3.517,-3.138l-8.627,-2.157l-13.544,-23.819l-14.761,-1.868l-0.372,0.609c-5.77,9.299 -7.258,20.649 -4.079,31.121c1.228,3.933 2.899,7.046 4.918,7.968Z" style="fill:#2f2e41;fill-rule:nonzero;"/><path d="M104.101,699.58c3.438,1.569 6.742,-11.518 9.217,-8.293c9.573,12.476 28.214,8.17 27.569,6.185c2.091,-0.673 3.519,-2.631 3.519,-4.827c0,-0.608 -0.109,-1.212 -0.323,-1.781c-0.585,-1.559 -1.902,-2.734 -3.518,-3.138l-8.626,-2.157l-13.544,-23.819l-14.761,-1.868l-0.373,0.609c-5.769,9.299 -7.257,20.649 -4.078,31.121c1.227,3.933 2.898,7.046 4.918,7.968Z" style="fill:#2f2e41;fill-rule:nonzero;"/><path d="M119.5,312.885l19.2,-65.54c1.894,-9.679 11.418,-16.085 21.098,-14.191c8.405,1.645 14.525,9.08 14.525,17.644c0,1.16 -0.112,2.316 -0.335,3.454l-15.697,59.853c-11.373,-11.975 -24.441,-11.356 -38.791,-1.22Z" style="fill:#bae8e8;fill-rule:nonzero;"/><path d="M289.216,251.859l-36.362,8.021l1.564,-28.923l29.704,0l19.142,-58.013l-0.251,-15.013c-0.249,-0.872 -0.376,-1.775 -0.376,-2.682c0,-5.042 3.906,-9.297 8.93,-9.728c0.277,-0.023 0.555,-0.035 0.834,-0.035c5.356,0 9.763,4.407 9.763,9.763c0,1.199 -0.22,2.387 -0.65,3.505l-6.543,17.793l-8.961,54.41c0,10.009 -7.02,18.746 -16.794,20.902Z" style="fill:#9f616a;fill-rule:nonzero;"/><circle cx="189.928" cy="179.756" r="31.268" style="fill:#9f616a;"/><path d="M195.79,245.809l-46.12,0.782c7.365,-23.096 12.425,-44.69 11.726,-62.536l35.176,0c-2.337,20.506 -2.599,41.196 -0.782,61.754Z" style="fill:#9f616a;fill-rule:nonzero;"/><path d="M225.886,350.166l-75.607,11.498c-11.944,-34.662 -12.295,-74.664 -5.922,-104.268c-1.587,-14.275 3.224,-28.545 13.13,-38.946l36.74,3.908c8.621,1.916 15.464,8.534 17.667,17.085c14.175,19.652 24.56,38.247 13.075,50.744l0.917,59.979Z" style="fill:#bae8e8;fill-rule:nonzero;"/><path d="M271.615,266.134l-68.008,-6.254c-9.863,0 -17.979,-8.116 -17.979,-17.979c0,-9.863 8.116,-17.979 17.979,-17.979l61.755,3.908c-9.569,13.462 -6.451,26.168 6.253,38.304Z" style="fill:#bae8e8;fill-rule:nonzero;"/><path d="M147.325,238.325l-23.099,-0.594c3.687,-32.292 5.607,-68.683 24.446,-87.389c2.398,-2.38 4.549,-4.845 6.697,-7.314c4.277,-4.917 13.34,-7.74 22.606,-6.669l4.541,0.525c14.905,1.724 46.17,12.411 45.265,21.746c-0.461,4.754 -0.773,13.306 -12.086,13.414c-9.137,12.26 -25.475,19.066 -18.654,30.712c13.649,12.175 -4.111,21.828 -18.433,29.101c-8.78,4.459 -19.919,6.76 -31.283,6.468Z" style="fill:#2f2e41;fill-rule:nonzero;"/></svg>